<?xml version="1.0" encoding="UTF-8"?>
<svg width="2100px" height="512px" viewBox="0 0 2100 512" version="1.1" xmlns="http://www.w3.org/2000/svg" xmlns:xlink="http://www.w3.org/1999/xlink">
    <!-- Generator: Sketch 47.1 (45422) - http://www.bohemiancoding.com/sketch -->
    <title>kubeless-dark-text</title>
    <desc>Created with Sketch.</desc>
    <defs></defs>
    <g id="Final" stroke="none" stroke-width="1" fill="none" fill-rule="evenodd">
        <g id="kubeless-dark-text">
            <g id="Logo" transform="translate(48.000000, 26.000000)">
                <path d="M173.179967,8.28219359 C192.309891,-2.76247313 223.33166,-2.75898913 242.455549,8.28219359 L380.997725,88.2695559 C400.127649,99.3142226 415.635516,126.181605 415.635516,148.26397 L415.635516,308.238695 C415.635516,330.328028 400.121614,357.191927 380.997725,368.233109 L242.455549,448.220471 C223.325625,459.265138 192.303856,459.261654 173.179967,448.220471 L34.6377913,368.233109 C15.5078674,357.188443 1.13686838e-13,330.32106 9.9475983e-14,308.238695 L1.42108547e-14,148.26397 C0,126.174637 15.5139019,99.3107386 34.6377913,88.2695559 L173.179967,8.28219359 Z" id="Polygon" fill="#FFFFFF"></path>
                <g id="Less" transform="translate(65.000000, 115.000000)" fill="#162D50">
                    <rect id="Rectangle" x="0" y="0" width="40" height="226" rx="5"></rect>
                    <rect id="Rectangle-6" x="0" y="186" width="134" height="40" rx="5"></rect>
                </g>
                <g id="Less" transform="translate(284.000000, 227.500000) scale(-1, 1) translate(-284.000000, -227.500000) translate(217.000000, 114.000000)" fill="#162D50">
                    <rect id="Rectangle" x="0" y="0" width="40" height="227" rx="5"></rect>
                    <rect id="Rectangle-6" x="0" y="187" width="134" height="40" rx="5"></rect>
                </g>
                <g id="Squares" transform="translate(127.000000, 116.000000)">
                    <rect id="Rectangle-7" fill="#6AA850" x="0" y="0" width="72" height="72" rx="5"></rect>
                    <rect id="Rectangle-7" fill="#162D50" x="90" y="0" width="72" height="72" rx="5"></rect>
                    <rect id="Rectangle-7" fill="#6DB3CA" x="90" y="90" width="72" height="72" rx="5"></rect>
                    <rect id="Rectangle-7" fill="#495ADC" x="0" y="90" width="72" height="72" rx="5"></rect>
                </g>
            </g>
            <path d="M763.006977,394 L668.006977,224.52 L745.906977,128 L700.686977,128 L622.026977,226.42 C613.286977,237.44 595.806977,259.48 591.246977,266.32 C591.626977,257.96 592.006977,229.08 592.006977,219.2 L592.006977,128 L553.246977,128 L553.246977,394 L592.006977,394 L592.006977,317.24 L641.406977,257.58 L717.786977,394 L763.006977,394 Z M962.710233,394 L962.710233,194.5 L923.570233,194.5 L923.570233,311.16 C923.570233,343.46 908.750233,362.08 882.530233,362.08 C856.690233,362.08 841.490233,347.64 841.490233,307.36 L841.490233,194.5 L802.350233,194.5 L802.350233,308.88 C802.350233,367.78 827.050233,398.18 873.410233,398.18 C893.930233,398.18 913.690233,389.44 923.570233,375 L923.570233,394 L962.710233,394 Z M1184.07349,297.48 C1184.07349,365.88 1146.83349,398.18 1105.41349,398.18 C1085.27349,398.18 1066.27349,387.54 1055.25349,375.38 L1055.25349,394 L1016.49349,394 L1016.49349,137.12 L1055.25349,116.98 L1055.25349,213.5 C1069.69349,200.2 1086.41349,190.32 1107.31349,190.32 C1150.25349,190.32 1184.07349,221.48 1184.07349,297.48 Z M1144.93349,298.62 C1144.93349,248.46 1128.97349,226.42 1100.09349,226.42 C1081.47349,226.42 1065.13349,238.96 1054.87349,251.88 L1054.87349,335.86 C1063.61349,347.64 1081.85349,362.08 1101.61349,362.08 C1129.73349,362.08 1144.93349,340.8 1144.93349,298.62 Z M1390.99674,290.26 C1390.99674,297.48 1390.23674,303.94 1389.85674,308.12 L1257.99674,308.12 C1262.17674,346.5 1283.83674,362.84 1308.15674,362.84 C1324.87674,362.84 1338.17674,356.76 1351.47674,346.88 L1374.65674,371.96 C1357.17674,388.68 1336.27674,398.18 1305.87674,398.18 C1259.13674,398.18 1219.61674,360.56 1219.61674,294.44 C1219.61674,226.8 1255.33674,190.32 1307.01674,190.32 C1363.63674,190.32 1390.99674,236.3 1390.99674,290.26 Z M1351.47674,275.82 C1349.57674,248.46 1336.65674,225.66 1304.35674,225.66 C1278.13674,225.66 1262.17674,243.9 1258.75674,275.82 L1351.47674,275.82 Z M1476.7,394 L1476.7,116.98 L1437.56,137.5 L1437.56,394 L1476.7,394 Z M1694.26326,290.26 C1694.26326,297.48 1693.50326,303.94 1693.12326,308.12 L1561.26326,308.12 C1565.44326,346.5 1587.10326,362.84 1611.42326,362.84 C1628.14326,362.84 1641.44326,356.76 1654.74326,346.88 L1677.92326,371.96 C1660.44326,388.68 1639.54326,398.18 1609.14326,398.18 C1562.40326,398.18 1522.88326,360.56 1522.88326,294.44 C1522.88326,226.8 1558.60326,190.32 1610.28326,190.32 C1666.90326,190.32 1694.26326,236.3 1694.26326,290.26 Z M1654.74326,275.82 C1652.84326,248.46 1639.92326,225.66 1607.62326,225.66 C1581.40326,225.66 1565.44326,243.9 1562.02326,275.82 L1654.74326,275.82 Z M1878.38651,339.28 C1878.38651,301.66 1855.58651,289.5 1811.12651,272.4 C1781.10651,260.62 1774.26651,253.4 1774.26651,243.52 C1774.26651,232.88 1782.62651,225.28 1801.62651,225.28 C1820.62651,225.28 1836.96651,230.98 1853.30651,242.38 L1870.40651,212.36 C1852.54651,199.44 1827.84651,190.32 1802.76651,190.32 C1762.86651,190.32 1734.74651,208.94 1734.74651,244.66 C1734.74651,276.2 1750.32651,290.64 1793.26651,307.36 C1822.14651,318.38 1839.62651,325.6 1839.62651,340.8 C1839.62651,354.86 1827.84651,362.84 1803.14651,362.84 C1784.52651,362.84 1763.62651,356 1745.00651,343.08 L1727.14651,372.72 C1747.28651,387.54 1776.54651,398.18 1803.52651,398.18 C1842.66651,398.18 1878.38651,383.36 1878.38651,339.28 Z M2064.02977,339.28 C2064.02977,301.66 2041.22977,289.5 1996.76977,272.4 C1966.74977,260.62 1959.90977,253.4 1959.90977,243.52 C1959.90977,232.88 1968.26977,225.28 1987.26977,225.28 C2006.26977,225.28 2022.60977,230.98 2038.94977,242.38 L2056.04977,212.36 C2038.18977,199.44 2013.48977,190.32 1988.40977,190.32 C1948.50977,190.32 1920.38977,208.94 1920.38977,244.66 C1920.38977,276.2 1935.96977,290.64 1978.90977,307.36 C2007.78977,318.38 2025.26977,325.6 2025.26977,340.8 C2025.26977,354.86 2013.48977,362.84 1988.78977,362.84 C1970.16977,362.84 1949.26977,356 1930.64977,343.08 L1912.78977,372.72 C1932.92977,387.54 1962.18977,398.18 1989.16977,398.18 C2028.30977,398.18 2064.02977,383.36 2064.02977,339.28 Z" id="Kubeless" fill="#FFFFFF"></path>
        </g>
    </g>
</svg>