<svg width="30" height="29" viewBox="0 0 30 29" xmlns="http://www.w3.org/2000/svg"><title>github</title><path d="M27.734 7.402a14.803 14.803 0 0 0-5.41-5.408C20.046.664 17.561 0 14.864 0S9.68.664 7.403 1.994a14.8 14.8 0 0 0-5.409 5.408C.664 9.68 0 12.167 0 14.864c0 3.238.946 6.15 2.835 8.737 1.89 2.587 4.332 4.377 7.326 5.37.348.065.607.02.773-.134a.756.756 0 0 0 .252-.582l-.01-1.044a162.6 162.6 0 0 1-.01-1.723l-.444.078a5.604 5.604 0 0 1-1.074.067 8.08 8.08 0 0 1-1.345-.136 2.995 2.995 0 0 1-1.297-.579c-.4-.303-.683-.7-.852-1.19l-.193-.446a4.826 4.826 0 0 0-.61-.987c-.278-.36-.558-.606-.841-.736l-.136-.096a1.46 1.46 0 0 1-.252-.233 1.021 1.021 0 0 1-.173-.27c-.039-.09-.008-.165.096-.223.103-.059.29-.087.561-.087l.388.058c.257.051.577.207.958.464.38.259.693.594.938 1.007.297.529.654.932 1.074 1.21.42.277.842.415 1.268.415.425 0 .793-.033 1.103-.096.31-.065.6-.161.871-.29.116-.865.432-1.53.948-1.994a13.221 13.221 0 0 1-1.984-.349 7.841 7.841 0 0 1-1.819-.755 5.21 5.21 0 0 1-1.558-1.296c-.412-.516-.752-1.194-1.015-2.032-.265-.84-.397-1.807-.397-2.903 0-1.561.51-2.89 1.53-3.988-.48-1.173-.434-2.489.135-3.947.373-.117.928-.028 1.664.261.735.29 1.273.54 1.615.745.343.206.617.381.823.523 1.2-.335 2.439-.503 3.716-.503 1.277 0 2.516.168 3.716.503l.736-.465c.502-.31 1.096-.593 1.78-.852.683-.257 1.206-.327 1.568-.212.58 1.458.632 2.774.155 3.948 1.019 1.097 1.528 2.426 1.528 3.987 0 1.096-.132 2.067-.397 2.913-.264.845-.605 1.522-1.025 2.032-.42.51-.942.938-1.568 1.287-.625.348-1.232.6-1.819.754a13.21 13.21 0 0 1-1.983.349c.67.581 1.005 1.496 1.005 2.748v4.083c0 .232.082.427.243.58.161.155.415.201.764.136 2.994-.994 5.435-2.783 7.325-5.371 1.89-2.587 2.835-5.499 2.835-8.737 0-2.696-.665-5.183-1.993-7.46" fill="#FEFEFE" fill-rule="evenodd"/></svg>