<svg width="32" height="32" viewBox="0 0 32 32" xmlns="http://www.w3.org/2000/svg"><title>google</title><path d="M16 0C7.163 0 0 7.163 0 16s7.163 16 16 16 16-7.163 16-16S24.837 0 16 0zm-.922 22.868c-1.005.489-2.086.54-2.505.54h-.125-.09c-.653 0-3.905-.15-3.905-3.111 0-2.91 3.542-3.139 4.627-3.139h.028c-.626-.836-.496-1.68-.496-1.68a3.899 3.899 0 0 1-.234.007c-.408 0-1.196-.065-1.873-.502-.83-.533-1.25-1.441-1.25-2.698 0-3.552 3.878-3.695 3.917-3.698h3.873v.085c0 .433-.778.518-1.308.59-.18.026-.542.061-.644.113.982.525 1.14 1.348 1.14 2.575 0 1.397-.546 2.135-1.126 2.653-.36.322-.642.574-.642.912 0 .332.387.67.837 1.065.735.648 1.743 1.53 1.743 3.018 0 1.539-.662 2.639-1.967 3.27zM23.5 16H21v2.5h-1.667V16h-2.5v-1.667h2.5v-2.5H21v2.5h2.5V16zm-10.462 1.917c-.086 0-.173.003-.261.01-.74.055-1.424.331-1.917.781-.49.444-.74 1.004-.705 1.569.075 1.185 1.347 1.878 2.892 1.768 1.52-.11 2.533-.987 2.46-2.172-.07-1.113-1.039-1.956-2.469-1.956zm1.457-6.442c-.403-1.417-1.053-1.837-2.063-1.837a1.25 1.25 0 0 0-.324.045c-.438.125-.786.49-.98 1.034-.198.55-.21 1.123-.04 1.776.309 1.169 1.139 2.015 1.975 2.015.11 0 .22-.013.324-.045.915-.256 1.488-1.653 1.108-2.988z" fill-rule="nonzero" fill="#FFF"/></svg>