<svg width="512" height="512" xmlns="http://www.w3.org/2000/svg"><g fill="none" fill-rule="evenodd"><path d="M221.18 35.998c19.13-11.045 50.152-11.041 69.276 0l138.542 79.987c19.13 11.045 34.638 37.913 34.638 59.995v159.975c0 22.089-15.514 48.953-34.638 59.994l-138.542 79.987c-19.13 11.045-50.152 11.042-69.276 0L82.638 395.95C63.508 384.904 48 358.037 48 335.955V175.98c0-22.09 15.514-48.953 34.638-59.994L221.18 35.998z" fill="#162D50"/><g transform="translate(113 143)" fill="#FFF"><rect width="40" height="226" rx="5"/><rect y="186" width="134" height="40" rx="5"/></g><g transform="matrix(-1 0 0 1 399 142)" fill="#FFF"><rect width="40" height="227" rx="5"/><rect y="187" width="134" height="40" rx="5"/></g><g transform="translate(175 144)"><rect fill="#6AA850" width="72" height="72" rx="5"/><rect fill="#FFF" x="90" width="72" height="72" rx="5"/><rect fill="#6DB3CA" x="90" y="90" width="72" height="72" rx="5"/><rect fill="#495ADC" y="90" width="72" height="72" rx="5"/></g></g></svg>